<svg xmlns="http://www.w3.org/2000/svg" width="600" height="400" viewBox="0 0 600 400"><rect width="100%" height="100%" fill="none"/><path fill="#999999" d="M155.05 206.71q.67 0 1.18.52l3.24 3.51q-2.69 3.32-6.61 5.09-3.91 1.77-9.4 1.77-4.92 0-8.83-1.68-3.92-1.68-6.7-4.67-2.77-2.99-4.25-7.13-1.48-4.15-1.48-9.06 0-4.97 1.58-9.11 1.59-4.13 4.47-7.12t6.88-4.65q3.99-1.66 8.84-1.66 4.82 0 8.56 1.58 3.74 1.59 6.36 4.15l-2.75 3.82q-.24.36-.62.64-.38.27-1.05.27-.46 0-.95-.26t-1.07-.64-1.34-.84-1.77-.84q-1-.38-2.33-.64t-3.07-.26q-2.96 0-5.41 1.06-2.46 1.05-4.22 3.05-1.77 1.99-2.75 4.88-.98 2.88-.98 6.57 0 3.72 1.06 6.62 1.05 2.89 2.85 4.88 1.8 1.98 4.24 3.03t5.24 1.05q1.68 0 3.04-.18t2.5-.58 2.16-1.02q1.03-.63 2.03-1.54.31-.27.64-.44.34-.17.71-.17m22.72-21.38q3.47 0 6.33 1.13 2.85 1.13 4.88 3.2 2.02 2.07 3.12 5.06t1.1 6.68q0 3.72-1.1 6.71t-3.12 5.1q-2.03 2.1-4.88 3.23-2.86 1.13-6.33 1.13-3.51 0-6.38-1.13-2.86-1.13-4.89-3.23-2.03-2.11-3.14-5.1-1.12-2.99-1.12-6.71 0-3.69 1.12-6.68 1.11-2.99 3.14-5.06t4.89-3.2q2.87-1.13 6.38-1.13m0 26.44q3.9 0 5.78-2.62 1.87-2.62 1.87-7.69 0-5.06-1.87-7.71-1.88-2.66-5.78-2.66-3.97 0-5.87 2.67-1.91 2.67-1.91 7.7 0 5.04 1.91 7.67 1.9 2.64 5.87 2.64m28.73 5.34h-7.53v-31.29h4.6q1.46 0 1.92 1.37l.49 2.32q.82-.92 1.72-1.68t1.92-1.31q1.03-.55 2.2-.87 1.18-.32 2.58-.32 2.96 0 4.86 1.6 1.91 1.6 2.85 4.25.74-1.55 1.83-2.66 1.1-1.12 2.41-1.82 1.32-.7 2.79-1.04 1.48-.33 2.98-.33 2.59 0 4.6.79 2.02.79 3.39 2.32t2.09 3.72q.72 2.2.72 5.03v19.92h-7.54v-19.92q0-2.99-1.31-4.5t-3.84-1.51q-1.16 0-2.15.4t-1.74 1.15q-.75.74-1.18 1.87-.42 1.13-.42 2.59v19.92h-7.57v-19.92q0-3.14-1.26-4.57-1.27-1.44-3.71-1.44-1.64 0-3.06.81t-2.64 2.21zm43.8-31.29h7.56v31.29h-7.56zm8.6-9.12q0 .97-.4 1.83-.4.85-1.05 1.49-.66.64-1.54 1.02-.89.38-1.89.38-.98 0-1.85-.38t-1.51-1.02-1.02-1.49q-.38-.86-.38-1.83 0-1.01.38-1.89.38-.89 1.02-1.53t1.51-1.02 1.85-.38q1 0 1.89.38.88.38 1.54 1.02.65.64 1.05 1.53.4.88.4 1.89m13.17 10.49.52 2.47q.95-.95 2-1.75 1.05-.81 2.23-1.38 1.17-.56 2.51-.88t2.93-.32q2.56 0 4.55.87 1.98.87 3.3 2.44 1.33 1.57 2.02 3.75.68 2.18.68 4.8v19.92h-7.53v-19.92q0-2.86-1.31-4.43-1.31-1.58-4-1.58-1.95 0-3.66.89-1.7.88-3.23 2.41v22.63h-7.53v-31.29h4.6q1.47 0 1.92 1.37m39.32 13.51q1.4 0 2.44-.38t1.72-1.05q.69-.67 1.04-1.62.35-.94.35-2.07 0-2.32-1.39-3.68t-4.16-1.36q-2.78 0-4.17 1.36-1.38 1.36-1.38 3.68 0 1.1.35 2.04.35.95 1.03 1.63.69.69 1.74 1.07 1.06.38 2.43.38m8.51 17.81q0-.91-.55-1.49t-1.5-.9q-.94-.32-2.21-.47-1.26-.16-2.68-.23-1.42-.08-2.93-.14t-2.94-.24q-1.25.7-2.03 1.64-.78.95-.78 2.2 0 .82.41 1.54.42.72 1.31 1.23.9.52 2.34.81 1.43.29 3.51.29 2.1 0 3.63-.32 1.52-.32 2.51-.88.99-.57 1.45-1.34.46-.78.46-1.7m-1.5-31.63h9v2.81q0 1.34-1.62 1.65l-2.8.52q.64 1.61.64 3.53 0 2.32-.93 4.2-.93 1.87-2.58 3.19-1.65 1.31-3.89 2.02-2.24.72-4.83.72-.92 0-1.77-.09t-1.68-.25q-1.46.89-1.46 1.99 0 .94.87 1.38.87.45 2.3.63t3.26.23q1.83.04 3.75.2 1.93.15 3.76.53t3.26 1.21q1.43.82 2.3 2.24t.87 3.64q0 2.08-1.02 4.03t-2.96 3.48q-1.94 1.52-4.76 2.45t-6.42.93q-3.53 0-6.16-.69-2.62-.68-4.36-1.83-1.74-1.14-2.59-2.63-.86-1.5-.86-3.11 0-2.2 1.33-3.68t3.65-2.36q-1.25-.64-1.99-1.71-.73-1.07-.73-2.81 0-.7.26-1.45.26-.74.76-1.48.51-.73 1.27-1.38.76-.66 1.8-1.18-2.38-1.28-3.74-3.41-1.36-2.14-1.36-5.01 0-2.31.93-4.19.94-1.88 2.6-3.2 1.66-1.33 3.93-2.03t4.96-.7q2.01 0 3.78.41t3.23 1.2m55.3-9.72-2.04 3.87q-.37.64-.78.93t-1.02.29q-.64 0-1.39-.47-.75-.48-1.79-1.06-1.03-.58-2.42-1.05t-3.28-.47q-1.71 0-2.99.41t-2.15 1.14q-.87.74-1.29 1.76-.43 1.02-.43 2.24 0 1.56.87 2.59.87 1.04 2.3 1.77t3.26 1.31 3.76 1.24q1.92.65 3.75 1.52t3.26 2.2 2.3 3.25.87 4.66q0 2.99-1.02 5.6t-2.99 4.54q-1.97 1.94-4.8 3.05-2.84 1.12-6.5 1.12-2.1 0-4.15-.41-2.04-.42-3.92-1.18-1.87-.76-3.52-1.83t-2.93-2.38l2.41-3.93q.31-.43.8-.72.48-.29 1.03-.29.77 0 1.65.63.88.62 2.1 1.39 1.22.76 2.86 1.38 1.63.63 3.92.63 3.5 0 5.42-1.66 1.93-1.67 1.93-4.78 0-1.74-.87-2.83-.87-1.1-2.31-1.85-1.43-.75-3.26-1.27-1.83-.51-3.72-1.12t-3.72-1.47q-1.83-.85-3.26-2.22-1.44-1.38-2.31-3.44-.87-2.05-.87-5.07 0-2.41.96-4.7t2.79-4.06 4.52-2.83q2.68-1.07 6.16-1.07 3.9 0 7.2 1.22 3.29 1.22 5.61 3.42m20.59 8.17q3.47 0 6.33 1.13 2.85 1.13 4.88 3.2 2.02 2.07 3.12 5.06t1.1 6.68q0 3.72-1.1 6.71t-3.12 5.1q-2.03 2.1-4.88 3.23-2.86 1.13-6.33 1.13-3.51 0-6.38-1.13-2.86-1.13-4.89-3.23-2.03-2.11-3.14-5.1-1.12-2.99-1.12-6.71 0-3.69 1.12-6.68 1.11-2.99 3.14-5.06t4.89-3.2q2.87-1.13 6.38-1.13m0 26.44q3.9 0 5.78-2.62 1.87-2.62 1.87-7.69 0-5.06-1.87-7.71-1.88-2.66-5.78-2.66-3.97 0-5.87 2.67-1.91 2.67-1.91 7.7 0 5.04 1.91 7.67 1.9 2.64 5.87 2.64m35.04-26.44q3.48 0 6.33 1.13t4.88 3.2 3.13 5.06q1.09 2.99 1.09 6.68 0 3.72-1.09 6.71-1.1 2.99-3.13 5.1-2.03 2.1-4.88 3.23t-6.33 1.13q-3.51 0-6.37-1.13-2.87-1.13-4.9-3.23-2.03-2.11-3.14-5.1t-1.11-6.71q0-3.69 1.11-6.68t3.14-5.06 4.9-3.2q2.86-1.13 6.37-1.13m0 26.44q3.91 0 5.78-2.62 1.88-2.62 1.88-7.69 0-5.06-1.88-7.71-1.87-2.66-5.78-2.66-3.96 0-5.87 2.67t-1.91 7.7q0 5.04 1.91 7.67 1.91 2.64 5.87 2.64m27.73-24.58.51 2.47q.95-.95 2-1.75 1.05-.81 2.23-1.38 1.17-.56 2.52-.88 1.34-.32 2.92-.32 2.57 0 4.55.87t3.31 2.44q1.32 1.57 2.01 3.75t.69 4.8v19.92h-7.54v-19.92q0-2.86-1.31-4.43-1.31-1.58-3.99-1.58-1.96 0-3.66.89-1.71.88-3.24 2.41v22.63h-7.53v-31.29h4.6q1.47 0 1.93 1.37"/></svg>